<?xml version="1.0" encoding="UTF-8"?>
<svg xmlns="http://www.w3.org/2000/svg" xmlns:xlink="http://www.w3.org/1999/xlink" width="30px" height="30px" viewBox="0 0 30 30" version="1.1">
<g id="surface1">
<path style=" stroke:none;fill-rule:nonzero;fill:rgb(0%,0%,0%);fill-opacity:1;" d="M 30.117188 12.71875 C 29.007812 14.070312 27.621094 15.0625 26.367188 16.207031 C 25.390625 17.101562 24.382812 17.96875 23.378906 18.835938 C 23.160156 19.027344 23.117188 19.222656 23.183594 19.507812 C 23.777344 22.066406 24.351562 24.632812 24.9375 27.195312 C 25.210938 28.382812 24.828125 29.195312 23.84375 29.5 C 23.3125 29.664062 22.847656 29.507812 22.398438 29.238281 C 20.167969 27.910156 17.929688 26.589844 15.710938 25.238281 C 15.289062 24.980469 14.984375 24.960938 14.554688 25.222656 C 12.375 26.558594 10.167969 27.851562 7.976562 29.175781 C 7.269531 29.605469 6.5625 29.765625 5.851562 29.238281 C 5.164062 28.730469 5.097656 28.015625 5.277344 27.234375 C 5.863281 24.675781 6.433594 22.105469 7.039062 19.550781 C 7.128906 19.175781 7.027344 18.972656 6.765625 18.746094 C 4.761719 17.003906 2.769531 15.246094 0.765625 13.503906 C 0.507812 13.277344 0.328125 13.007812 0.136719 12.691406 C 0.117188 12.300781 0.117188 11.945312 0.117188 11.539062 C 0.503906 10.789062 1.121094 10.484375 1.886719 10.417969 C 3.769531 10.257812 5.652344 10.089844 7.53125 9.921875 C 8.25 9.859375 8.964844 9.761719 9.683594 9.722656 C 10.074219 9.703125 10.257812 9.523438 10.402344 9.175781 C 11.371094 6.875 12.367188 4.589844 13.328125 2.285156 C 13.679688 1.449219 14.101562 0.695312 15.125 0.703125 C 16.113281 0.707031 16.539062 1.417969 16.882812 2.246094 C 17.835938 4.550781 18.84375 6.835938 19.816406 9.136719 C 19.964844 9.492188 20.136719 9.695312 20.5625 9.726562 C 22.5625 9.890625 24.554688 10.085938 26.550781 10.277344 C 27.25 10.339844 27.945312 10.417969 28.640625 10.488281 C 29.324219 10.554688 29.800781 10.910156 30.097656 11.566406 C 30.117188 11.957031 30.117188 12.3125 30.117188 12.71875 M 8.792969 17.890625 C 9.152344 18.398438 9.234375 18.9375 9.085938 19.554688 C 8.644531 21.390625 8.226562 23.234375 7.832031 25.082031 C 7.695312 25.722656 7.464844 26.359375 7.449219 27.101562 C 7.652344 26.996094 7.773438 26.941406 7.886719 26.875 C 9.917969 25.664062 11.957031 24.476562 13.96875 23.238281 C 14.765625 22.746094 15.484375 22.75 16.265625 23.234375 C 17.542969 24.023438 18.839844 24.785156 20.128906 25.554688 C 20.992188 26.070312 21.859375 26.578125 22.808594 27.140625 C 22.785156 26.898438 22.78125 26.765625 22.753906 26.636719 C 22.226562 24.300781 21.722656 21.957031 21.160156 19.628906 C 20.9375 18.710938 21.207031 18.046875 21.894531 17.457031 C 23.671875 15.925781 25.425781 14.375 27.1875 12.828125 C 27.316406 12.710938 27.53125 12.632812 27.484375 12.363281 C 25.167969 12.160156 22.863281 11.910156 20.550781 11.765625 C 19.261719 11.6875 18.390625 11.25 17.96875 9.941406 C 17.601562 8.8125 17.054688 7.742188 16.585938 6.648438 C 16.117188 5.5625 15.648438 4.480469 15.167969 3.371094 C 14.933594 3.558594 14.890625 3.777344 14.808594 3.96875 C 13.875 6.136719 12.941406 8.304688 12.023438 10.480469 C 11.757812 11.101562 11.363281 11.558594 10.667969 11.628906 C 8.925781 11.804688 7.175781 11.949219 5.429688 12.113281 C 4.527344 12.199219 3.625 12.300781 2.585938 12.40625 C 4.703125 14.269531 6.71875 16.046875 8.792969 17.890625 Z M 8.792969 17.890625 "/>
</g>
</svg>
