<?xml version="1.0" encoding="UTF-8"?>
<svg xmlns="http://www.w3.org/2000/svg" xmlns:xlink="http://www.w3.org/1999/xlink" width="90px" height="90px" viewBox="0 0 90 90" version="1.1">
<g id="surface1">
<path style=" stroke:none;fill-rule:nonzero;fill:rgb(99.607843%,99.215686%,99.607843%);fill-opacity:1;" d="M 41.949219 0.382812 C 58.085938 0.382812 74.222656 0.382812 90.371094 0.382812 C 90.371094 30.359375 90.371094 60.339844 90.371094 90.347656 C 60.417969 90.347656 30.453125 90.347656 0.433594 90.347656 C 0.433594 60.382812 0.433594 30.382812 0.433594 0.382812 C 14.019531 0.382812 27.613281 0.382812 41.378906 0.519531 C 34.167969 17.1875 34.855469 33.363281 43.683594 49.304688 C 44.257812 50.238281 44.816406 51.054688 45.378906 51.867188 C 45.382812 51.863281 45.375 51.867188 45.394531 51.996094 C 46.035156 52.929688 46.652344 53.734375 47.3125 54.632812 C 47.394531 54.789062 47.433594 54.84375 47.492188 55.015625 C 48.070312 55.699219 48.625 56.269531 49.1875 56.828125 C 49.191406 56.820312 49.175781 56.835938 49.203125 56.960938 C 50.945312 58.90625 52.667969 60.726562 54.386719 62.546875 C 53.503906 59.355469 52.296875 56.496094 51.472656 53.53125 C 50.625 50.496094 50.148438 47.355469 49.515625 44.128906 C 49.492188 43.824219 49.464844 43.652344 49.464844 43.3125 C 49.003906 38.597656 49.335938 34.09375 50.375 29.664062 C 50.554688 29.722656 50.628906 29.742188 50.757812 29.867188 C 51.140625 30.171875 51.464844 30.375 51.820312 30.558594 C 51.855469 30.539062 51.796875 30.589844 51.820312 30.714844 C 52.757812 31.871094 53.71875 32.867188 54.578125 33.945312 C 57.003906 36.976562 59.382812 40.039062 61.78125 43.089844 C 61.78125 43.09375 61.785156 43.09375 61.800781 43.226562 C 62.789062 45.195312 63.796875 47.015625 64.722656 48.875 C 65.671875 50.777344 66.539062 52.71875 67.441406 54.753906 C 67.46875 55.007812 67.5 55.148438 67.53125 55.441406 C 68.164062 57.757812 68.800781 59.925781 69.4375 62.246094 C 69.496094 62.597656 69.546875 62.792969 69.582031 63.046875 C 69.566406 63.105469 69.648438 63.191406 69.644531 63.332031 C 69.742188 64.066406 69.839844 64.660156 69.941406 65.257812 C 70.09375 65.273438 70.25 65.289062 70.40625 65.300781 C 70.570312 63.746094 70.734375 62.1875 70.921875 60.480469 C 71.546875 54.574219 71.523438 48.832031 70.503906 43.007812 C 70.429688 42.703125 70.347656 42.507812 70.257812 42.148438 C 69.820312 40.074219 69.390625 38.164062 68.96875 36.140625 C 68.867188 35.839844 68.761719 35.648438 68.652344 35.34375 C 68.53125 35.042969 68.417969 34.855469 68.289062 34.683594 C 68.277344 34.699219 68.3125 34.683594 68.324219 34.539062 C 68.066406 33.699219 67.804688 33 67.539062 32.15625 C 65.351562 27.699219 63.160156 23.386719 60.957031 18.953125 C 60.722656 18.648438 60.496094 18.460938 60.261719 18.285156 C 60.253906 18.296875 60.28125 18.292969 60.25 18.199219 C 60.105469 18.035156 60 17.960938 59.894531 17.902344 C 59.898438 17.917969 59.917969 17.894531 59.910156 17.765625 C 59.644531 17.335938 59.394531 17.039062 59.128906 16.757812 C 59.117188 16.773438 59.152344 16.753906 59.140625 16.628906 C 58.878906 16.207031 58.628906 15.902344 58.367188 15.605469 C 58.351562 15.613281 58.386719 15.617188 58.359375 15.515625 C 58.21875 15.347656 58.105469 15.28125 58.003906 15.222656 C 58.011719 15.234375 58.023438 15.207031 58.007812 15.085938 C 57.75 14.785156 57.511719 14.605469 57.257812 14.425781 C 57.242188 14.425781 57.265625 14.449219 57.277344 14.316406 C 56.871094 13.664062 56.457031 13.140625 56.046875 12.605469 C 56.050781 12.589844 56.023438 12.597656 56.003906 12.484375 C 55.757812 12.179688 55.53125 11.988281 55.253906 11.683594 C 51.339844 7.183594 46.753906 3.652344 41.949219 0.382812 M 62.191406 75.042969 C 62.035156 75.191406 61.878906 75.339844 61.480469 75.550781 C 58.59375 77.796875 56.425781 80.601562 54.726562 84.101562 C 53.980469 85.71875 53.230469 87.335938 52.484375 88.953125 C 52.699219 89.070312 52.914062 89.191406 53.128906 89.308594 C 53.625 88.714844 54.121094 88.125 54.808594 87.410156 C 54.996094 87.1875 55.183594 86.960938 55.601562 86.640625 C 56.039062 86.210938 56.476562 85.78125 57.113281 85.246094 C 57.164062 85.191406 57.21875 85.136719 57.277344 85.140625 C 57.277344 85.140625 57.277344 85.089844 57.496094 84.957031 C 57.671875 84.777344 57.847656 84.597656 58.222656 84.332031 C 58.296875 84.21875 58.375 84.109375 58.410156 84.011719 C 58.410156 84.011719 58.453125 84.027344 58.695312 83.980469 C 59.015625 83.722656 59.335938 83.46875 59.839844 83.15625 C 59.980469 83.027344 60.121094 82.902344 60.5 82.734375 C 60.804688 82.488281 61.105469 82.242188 61.664062 81.925781 C 64.761719 80.078125 67.875 78.257812 70.945312 76.371094 C 76.136719 73.1875 80.378906 69.132812 82.519531 63.265625 C 82.777344 62.5625 82.652344 61.71875 82.730469 60.492188 C 80.511719 62.417969 78.75 63.941406 76.777344 65.539062 C 76.703125 65.660156 76.632812 65.78125 76.597656 65.871094 C 76.597656 65.871094 76.554688 65.839844 76.3125 65.867188 C 76.019531 66.136719 75.722656 66.402344 75.46875 66.691406 C 75.46875 66.691406 75.472656 66.648438 75.214844 66.640625 C 74.796875 66.925781 74.382812 67.207031 73.980469 67.503906 C 73.980469 67.503906 73.976562 67.484375 73.769531 67.515625 C 73.6875 67.625 73.605469 67.730469 73.5625 67.820312 C 73.5625 67.820312 73.53125 67.792969 73.269531 67.851562 C 70.832031 69.382812 68.390625 70.914062 65.972656 72.457031 C 65.972656 72.457031 65.960938 72.433594 65.71875 72.488281 C 65.273438 72.839844 64.832031 73.195312 64.417969 73.570312 C 64.417969 73.570312 64.425781 73.535156 64.179688 73.585938 C 64.066406 73.703125 63.953125 73.824219 63.65625 73.933594 C 63.53125 74.054688 63.402344 74.175781 63.050781 74.355469 C 62.84375 74.574219 62.636719 74.792969 62.414062 75.015625 C 62.414062 75.015625 62.402344 75 62.191406 75.042969 M 11.824219 73.230469 C 11.824219 73.230469 11.769531 73.269531 11.835938 73.515625 C 12.199219 73.691406 12.558594 73.871094 12.902344 74.011719 C 12.902344 74.011719 12.90625 74.050781 12.96875 74.296875 C 15.003906 75.472656 17.039062 76.648438 19.1875 77.867188 C 19.1875 77.867188 19.3125 77.855469 19.488281 78.066406 C 20.621094 78.535156 21.757812 79.007812 23.132812 79.597656 C 23.308594 79.617188 23.484375 79.636719 23.828125 79.84375 C 24.152344 79.910156 24.472656 79.972656 25.078125 80.125 C 34.347656 82.765625 43.332031 82.058594 52.558594 77.996094 C 48.1875 77.234375 44.335938 76.714844 40.558594 75.867188 C 36.753906 75.015625 33.171875 73.515625 29.820312 71.183594 C 39.234375 66.570312 48.898438 65.304688 59.078125 66.800781 C 58.648438 66.226562 58.183594 65.746094 57.621094 65.476562 C 55.738281 64.566406 53.882812 63.539062 51.902344 62.910156 C 48.757812 61.910156 45.523438 61.199219 42.011719 60.28125 C 39.320312 60.144531 36.632812 60.011719 33.617188 59.851562 C 32.960938 59.878906 32.304688 59.90625 31.347656 59.890625 C 30.683594 60.003906 30.019531 60.121094 29.070312 60.226562 C 28.789062 60.253906 28.503906 60.28125 27.914062 60.28125 C 26.238281 60.664062 24.566406 61.042969 22.597656 61.445312 C 22.410156 61.507812 22.226562 61.566406 21.921875 61.597656 C 21.84375 61.636719 21.792969 61.699219 21.472656 61.800781 C 17.191406 63.0625 13.113281 64.75 9.257812 67.519531 C 8.496094 67.988281 7.734375 68.457031 6.707031 69.085938 C 7.398438 69.578125 7.863281 69.902344 8.371094 70.183594 C 8.371094 70.183594 8.328125 70.226562 8.375 70.464844 C 8.617188 70.664062 8.859375 70.863281 9.164062 71.195312 C 9.226562 71.28125 9.308594 71.332031 9.53125 71.539062 C 9.648438 71.625 9.765625 71.710938 9.980469 71.980469 C 10.203125 72.144531 10.421875 72.308594 10.765625 72.683594 C 11.101562 72.882812 11.4375 73.078125 11.824219 73.230469 M 58.621094 72.417969 C 59.515625 71.964844 60.40625 71.511719 61.300781 71.058594 C 61.269531 70.925781 61.238281 70.789062 61.207031 70.65625 C 60.253906 70.492188 59.300781 70.328125 58.042969 70.121094 C 52.300781 68.726562 46.765625 69.421875 41.058594 71.585938 C 45.535156 73.953125 52.265625 74.222656 58.621094 72.417969 M 81.03125 49.753906 C 81.601562 47.535156 82.171875 45.316406 82.867188 42.820312 C 84.914062 32.367188 83.613281 22.441406 78.242188 12.59375 C 75.511719 15.085938 73.042969 17.21875 70.71875 19.496094 C 68.554688 21.613281 68.628906 21.675781 69.988281 24.378906 C 75.003906 34.347656 76.371094 44.84375 74.40625 55.789062 C 73.957031 58.292969 73.261719 60.75 72.679688 63.230469 C 72.835938 63.316406 72.992188 63.402344 73.148438 63.488281 C 75.203125 61.171875 76.917969 58.609375 78.425781 55.589844 C 79.113281 53.972656 79.804688 52.351562 80.660156 50.582031 C 80.722656 50.375 80.78125 50.164062 81.03125 49.753906 M 65.191406 62.0625 C 63.273438 55.265625 60.507812 48.941406 55.132812 43.601562 C 54.535156 52.316406 60.433594 65.28125 66.15625 67.898438 C 65.8125 65.878906 65.511719 64.128906 65.191406 62.0625 M 83.203125 60.089844 C 83.203125 60.089844 83.078125 60.0625 83.078125 60.0625 C 83.078125 60.0625 83.148438 60.09375 83.203125 60.089844 Z M 83.203125 60.089844 "/>
<path style=" stroke:none;fill-rule:nonzero;fill:rgb(82.745099%,54.901963%,73.333335%);fill-opacity:1;" d="M 41.855469 0.382812 C 46.753906 3.652344 51.339844 7.183594 55.265625 11.808594 C 55.558594 12.230469 55.789062 12.414062 56.023438 12.597656 C 56.023438 12.597656 56.050781 12.589844 56.054688 12.738281 C 56.460938 13.40625 56.863281 13.925781 57.265625 14.449219 C 57.265625 14.449219 57.242188 14.425781 57.25 14.558594 C 57.511719 14.863281 57.769531 15.035156 58.023438 15.207031 C 58.023438 15.207031 58.011719 15.234375 58.035156 15.316406 C 58.167969 15.472656 58.277344 15.542969 58.386719 15.617188 C 58.386719 15.617188 58.351562 15.613281 58.355469 15.746094 C 58.625 16.171875 58.890625 16.460938 59.152344 16.753906 C 59.152344 16.753906 59.117188 16.773438 59.121094 16.898438 C 59.390625 17.3125 59.652344 17.601562 59.917969 17.894531 C 59.917969 17.894531 59.898438 17.917969 59.929688 17.996094 C 60.070312 18.148438 60.175781 18.222656 60.28125 18.292969 C 60.28125 18.292969 60.253906 18.296875 60.269531 18.40625 C 60.511719 18.703125 60.738281 18.886719 60.964844 19.070312 C 63.160156 23.386719 65.351562 27.699219 67.527344 32.3125 C 67.78125 33.304688 68.046875 33.992188 68.3125 34.683594 C 68.3125 34.683594 68.277344 34.699219 68.285156 34.800781 C 68.414062 35.089844 68.535156 35.273438 68.65625 35.460938 C 68.761719 35.648438 68.867188 35.839844 68.871094 36.246094 C 68.246094 38.675781 69.515625 40.425781 70.265625 42.3125 C 70.347656 42.507812 70.429688 42.703125 70.402344 43.121094 C 70.257812 44.03125 70.140625 44.726562 70.203125 45.410156 C 70.410156 47.785156 70.839844 50.148438 70.890625 52.523438 C 70.945312 55.226562 70.679688 57.933594 70.535156 60.761719 C 70.277344 61.058594 70.03125 61.238281 69.769531 61.265625 C 69.382812 59.597656 69.070312 58.054688 68.605469 56.566406 C 68.453125 56.078125 67.902344 55.714844 67.53125 55.292969 C 67.5 55.148438 67.46875 55.007812 67.460938 54.59375 C 66.585938 50.375 64.71875 46.855469 62.613281 43.453125 C 62.484375 43.242188 62.066406 43.207031 61.785156 43.09375 C 61.785156 43.09375 61.78125 43.09375 61.78125 42.945312 C 61.6875 42.371094 61.71875 41.851562 61.480469 41.539062 C 59.121094 38.46875 56.761719 35.394531 54.292969 32.410156 C 53.65625 31.644531 52.640625 31.1875 51.796875 30.589844 C 51.796875 30.589844 51.855469 30.539062 51.828125 30.417969 C 51.4375 30.117188 51.070312 29.941406 50.703125 29.761719 C 50.628906 29.742188 50.554688 29.722656 50.273438 29.585938 C 49.777344 29.820312 49.253906 30.160156 49.234375 30.527344 C 49.046875 34.3125 48.917969 38.097656 48.84375 41.882812 C 48.835938 42.410156 49.230469 42.945312 49.433594 43.476562 C 49.464844 43.652344 49.492188 43.824219 49.417969 44.242188 C 49.15625 49.128906 50.546875 53.457031 52.199219 58.089844 C 50.984375 57.585938 50.078125 57.210938 49.175781 56.835938 C 49.175781 56.835938 49.191406 56.820312 49.191406 56.6875 C 48.617188 56.003906 48.046875 55.453125 47.472656 54.902344 C 47.433594 54.84375 47.394531 54.789062 47.410156 54.5625 C 46.769531 53.550781 46.070312 52.707031 45.375 51.867188 C 45.375 51.867188 45.382812 51.863281 45.378906 51.722656 C 44.804688 50.78125 44.234375 49.984375 43.664062 49.183594 C 34.855469 33.363281 34.167969 17.1875 41.558594 0.519531 C 41.566406 0.382812 41.757812 0.382812 41.855469 0.382812 Z M 41.855469 0.382812 "/>
<path style=" stroke:none;fill-rule:nonzero;fill:rgb(82.352942%,55.29412%,73.333335%);fill-opacity:1;" d="M 9.410156 71.355469 C 9.308594 71.332031 9.226562 71.28125 9.136719 70.988281 C 8.847656 70.597656 8.589844 70.414062 8.328125 70.226562 C 8.328125 70.226562 8.371094 70.183594 8.371094 70.058594 C 8.75 69.105469 9.132812 68.285156 9.519531 67.460938 C 13.113281 64.75 17.191406 63.0625 21.671875 61.773438 C 21.933594 61.71875 21.988281 61.679688 22.039062 61.628906 C 22.226562 61.566406 22.410156 61.507812 22.839844 61.535156 C 24.238281 61.457031 25.40625 61.34375 26.539062 61.089844 C 27.128906 60.960938 27.664062 60.578125 28.21875 60.3125 C 28.503906 60.28125 28.789062 60.253906 29.308594 60.339844 C 30.246094 60.28125 30.949219 60.105469 31.652344 59.933594 C 32.304688 59.90625 32.960938 59.878906 33.886719 59.972656 C 36.679688 60.382812 39.203125 60.683594 41.734375 60.929688 C 41.910156 60.945312 42.128906 60.5625 42.328125 60.363281 C 45.523438 61.199219 48.757812 61.910156 51.902344 62.910156 C 53.882812 63.539062 55.738281 64.566406 57.621094 65.476562 C 58.183594 65.746094 58.648438 66.226562 59.078125 66.800781 C 48.898438 65.304688 39.234375 66.570312 29.820312 71.183594 C 33.171875 73.515625 36.753906 75.015625 40.558594 75.867188 C 44.335938 76.714844 48.1875 77.234375 52.558594 77.996094 C 43.332031 82.058594 34.347656 82.765625 24.914062 79.964844 C 24.390625 79.757812 24.023438 79.707031 23.660156 79.65625 C 23.484375 79.636719 23.308594 79.617188 23 79.417969 C 22.132812 77.625 20.726562 77.726562 19.3125 77.855469 C 19.3125 77.855469 19.1875 77.867188 19.074219 77.726562 C 16.945312 76.40625 14.925781 75.230469 12.90625 74.050781 C 12.90625 74.050781 12.902344 74.011719 12.875 73.902344 C 12.488281 73.621094 12.128906 73.445312 11.769531 73.269531 C 11.769531 73.269531 11.824219 73.230469 11.796875 73.113281 C 11.394531 72.824219 11.019531 72.648438 10.644531 72.472656 C 10.421875 72.308594 10.203125 72.144531 9.894531 71.777344 C 9.675781 71.5 9.542969 71.425781 9.410156 71.355469 Z M 9.410156 71.355469 "/>
<path style=" stroke:none;fill-rule:nonzero;fill:rgb(82.352942%,55.686277%,73.333335%);fill-opacity:1;" d="M 78.210938 55.746094 C 76.917969 58.609375 75.203125 61.171875 73.148438 63.488281 C 72.992188 63.402344 72.835938 63.316406 72.679688 63.230469 C 73.261719 60.75 73.957031 58.292969 74.40625 55.789062 C 76.371094 44.84375 75.003906 34.347656 69.988281 24.378906 C 68.628906 21.675781 68.554688 21.613281 70.71875 19.496094 C 73.042969 17.21875 75.511719 15.085938 78.242188 12.59375 C 83.613281 22.441406 84.914062 32.367188 82.695312 43.042969 C 81.929688 45.488281 80.355469 47.460938 80.839844 49.953125 C 80.78125 50.164062 80.722656 50.375 80.441406 50.671875 C 79.757812 51.484375 79.425781 52.363281 78.796875 52.890625 C 77.761719 53.757812 77.785156 54.667969 78.210938 55.746094 Z M 78.210938 55.746094 "/>
<path style=" stroke:none;fill-rule:nonzero;fill:rgb(67.058825%,34.509805%,54.901963%);fill-opacity:1;" d="M 63.277344 74.296875 C 63.402344 74.175781 63.53125 74.054688 63.875 73.914062 C 64.203125 73.777344 64.316406 73.65625 64.425781 73.535156 C 64.425781 73.535156 64.417969 73.570312 64.546875 73.574219 C 65.105469 73.199219 65.53125 72.816406 65.960938 72.433594 C 65.960938 72.433594 65.972656 72.457031 66.109375 72.453125 C 68.605469 71.246094 70.980469 70.066406 73.316406 68.8125 C 73.515625 68.707031 73.464844 68.144531 73.53125 67.792969 C 73.53125 67.792969 73.5625 67.820312 73.644531 67.804688 C 73.808594 67.6875 73.894531 67.585938 73.976562 67.484375 C 73.976562 67.484375 73.980469 67.503906 74.109375 67.496094 C 74.652344 67.210938 75.0625 66.929688 75.472656 66.648438 C 75.472656 66.648438 75.46875 66.691406 75.585938 66.691406 C 75.984375 66.410156 76.269531 66.125 76.554688 65.839844 C 76.554688 65.839844 76.597656 65.871094 76.6875 65.859375 C 76.851562 65.722656 76.921875 65.59375 76.992188 65.464844 C 78.75 63.941406 80.511719 62.417969 82.730469 60.492188 C 82.652344 61.71875 82.777344 62.5625 82.519531 63.265625 C 80.378906 69.132812 76.136719 73.1875 70.945312 76.371094 C 67.875 78.257812 64.761719 80.078125 61.402344 81.960938 C 60.847656 82.253906 60.554688 82.511719 60.261719 82.773438 C 60.121094 82.902344 59.980469 83.027344 59.605469 83.167969 C 59.066406 83.464844 58.757812 83.746094 58.453125 84.027344 C 58.453125 84.027344 58.410156 84.011719 58.320312 84.023438 C 58.160156 84.160156 58.09375 84.289062 58.027344 84.414062 C 57.847656 84.597656 57.671875 84.777344 57.394531 85.027344 C 57.289062 85.097656 57.273438 85.082031 57.273438 85.082031 C 57.21875 85.136719 57.164062 85.191406 56.886719 85.320312 C 56.230469 85.84375 55.800781 86.289062 55.375 86.738281 C 55.183594 86.960938 54.996094 87.1875 54.65625 87.328125 C 54.636719 86.136719 54.773438 85.027344 54.910156 83.921875 C 56.425781 80.601562 58.59375 77.796875 61.738281 75.527344 C 62.175781 75.507812 62.355469 75.511719 62.558594 75.566406 C 62.617188 75.636719 62.648438 75.65625 62.683594 75.671875 C 62.636719 75.617188 62.59375 75.558594 62.523438 75.375 C 62.464844 75.164062 62.433594 75.082031 62.402344 75 C 62.402344 75 62.414062 75.015625 62.558594 75.039062 C 62.894531 74.808594 63.085938 74.550781 63.277344 74.296875 Z M 63.277344 74.296875 "/>
<path style=" stroke:none;fill-rule:nonzero;fill:rgb(94.901961%,82.745099%,89.019608%);fill-opacity:1;" d="M 65.203125 62.222656 C 65.511719 64.128906 65.8125 65.878906 66.15625 67.898438 C 60.433594 65.28125 54.535156 52.316406 55.132812 43.601562 C 60.507812 48.941406 63.273438 55.265625 65.203125 62.222656 Z M 65.203125 62.222656 "/>
<path style=" stroke:none;fill-rule:nonzero;fill:rgb(94.901961%,83.137256%,89.019608%);fill-opacity:1;" d="M 58.347656 72.445312 C 52.265625 74.222656 45.535156 73.953125 41.058594 71.585938 C 46.765625 69.421875 52.300781 68.726562 58.207031 70.273438 C 58.363281 71.101562 58.355469 71.773438 58.347656 72.445312 Z M 58.347656 72.445312 "/>
<path style=" stroke:none;fill-rule:nonzero;fill:rgb(80.392158%,61.176473%,74.117649%);fill-opacity:1;" d="M 49.203125 56.960938 C 50.078125 57.210938 50.984375 57.585938 52.199219 58.089844 C 50.546875 53.457031 49.15625 49.128906 49.410156 44.375 C 50.148438 47.355469 50.625 50.496094 51.472656 53.53125 C 52.296875 56.496094 53.503906 59.355469 54.386719 62.546875 C 52.667969 60.726562 50.945312 58.90625 49.203125 56.960938 Z M 49.203125 56.960938 "/>
<path style=" stroke:none;fill-rule:nonzero;fill:rgb(80.392158%,61.176473%,74.117649%);fill-opacity:1;" d="M 51.820312 30.714844 C 52.640625 31.1875 53.65625 31.644531 54.292969 32.410156 C 56.761719 35.394531 59.121094 38.46875 61.480469 41.539062 C 61.71875 41.851562 61.6875 42.371094 61.78125 42.941406 C 59.382812 40.039062 57.003906 36.976562 54.578125 33.945312 C 53.71875 32.867188 52.757812 31.871094 51.820312 30.714844 Z M 51.820312 30.714844 "/>
<path style=" stroke:none;fill-rule:nonzero;fill:rgb(80.392158%,61.176473%,74.117649%);fill-opacity:1;" d="M 61.800781 43.226562 C 62.066406 43.207031 62.484375 43.242188 62.613281 43.453125 C 64.71875 46.855469 66.585938 50.375 67.460938 54.484375 C 66.539062 52.71875 65.671875 50.777344 64.722656 48.875 C 63.796875 47.015625 62.789062 45.195312 61.800781 43.226562 Z M 61.800781 43.226562 "/>
<path style=" stroke:none;fill-rule:nonzero;fill:rgb(80.392158%,61.176473%,74.117649%);fill-opacity:1;" d="M 49.464844 43.3125 C 49.230469 42.945312 48.835938 42.410156 48.84375 41.882812 C 48.917969 38.097656 49.046875 34.3125 49.234375 30.527344 C 49.253906 30.160156 49.777344 29.820312 50.167969 29.542969 C 49.335938 34.09375 49.003906 38.597656 49.464844 43.3125 Z M 49.464844 43.3125 "/>
<path style=" stroke:none;fill-rule:nonzero;fill:rgb(76.862746%,58.431375%,70.980394%);fill-opacity:1;" d="M 70.554688 60.636719 C 70.679688 57.933594 70.945312 55.226562 70.890625 52.523438 C 70.839844 50.148438 70.410156 47.785156 70.203125 45.410156 C 70.140625 44.726562 70.257812 44.03125 70.394531 43.230469 C 71.523438 48.832031 71.546875 54.574219 70.835938 60.484375 C 70.726562 60.636719 70.554688 60.636719 70.554688 60.636719 Z M 70.554688 60.636719 "/>
<path style=" stroke:none;fill-rule:nonzero;fill:rgb(62.352943%,36.862746%,52.549022%);fill-opacity:1;" d="M 73.402344 67.820312 C 73.464844 68.144531 73.515625 68.707031 73.316406 68.8125 C 70.980469 70.066406 68.605469 71.246094 66.097656 72.445312 C 68.390625 70.914062 70.832031 69.382812 73.402344 67.820312 Z M 73.402344 67.820312 "/>
<path style=" stroke:none;fill-rule:nonzero;fill:rgb(78.823531%,60.784316%,72.941178%);fill-opacity:1;" d="M 12.9375 74.175781 C 14.925781 75.230469 16.945312 76.40625 19.015625 77.703125 C 17.039062 76.648438 15.003906 75.472656 12.9375 74.175781 Z M 12.9375 74.175781 "/>
<path style=" stroke:none;fill-rule:nonzero;fill:rgb(65.882355%,45.882353%,57.647061%);fill-opacity:1;" d="M 54.820312 84.011719 C 54.773438 85.027344 54.636719 86.136719 54.558594 87.386719 C 54.121094 88.125 53.625 88.714844 53.128906 89.308594 C 52.914062 89.191406 52.699219 89.070312 52.484375 88.953125 C 53.230469 87.335938 53.980469 85.71875 54.820312 84.011719 Z M 54.820312 84.011719 "/>
<path style=" stroke:none;fill-rule:nonzero;fill:rgb(78.823531%,59.607846%,72.549021%);fill-opacity:1;" d="M 42.167969 60.320312 C 42.128906 60.5625 41.910156 60.945312 41.734375 60.929688 C 39.203125 60.683594 36.679688 60.382812 34.050781 59.988281 C 36.632812 60.011719 39.320312 60.144531 42.167969 60.320312 Z M 42.167969 60.320312 "/>
<path style=" stroke:none;fill-rule:nonzero;fill:rgb(80.392158%,61.176473%,74.117649%);fill-opacity:1;" d="M 67.53125 55.441406 C 67.902344 55.714844 68.453125 56.078125 68.605469 56.566406 C 69.070312 58.054688 69.382812 59.597656 69.734375 61.355469 C 69.621094 61.757812 69.53125 61.925781 69.4375 62.09375 C 68.800781 59.925781 68.164062 57.757812 67.53125 55.441406 Z M 67.53125 55.441406 "/>
<path style=" stroke:none;fill-rule:nonzero;fill:rgb(79.607844%,59.607846%,72.941178%);fill-opacity:1;" d="M 78.316406 55.667969 C 77.785156 54.667969 77.761719 53.757812 78.796875 52.890625 C 79.425781 52.363281 79.757812 51.484375 80.359375 50.75 C 79.804688 52.351562 79.113281 53.972656 78.316406 55.667969 Z M 78.316406 55.667969 "/>
<path style=" stroke:none;fill-rule:nonzero;fill:rgb(79.215688%,65.490198%,73.725492%);fill-opacity:1;" d="M 69.4375 62.246094 C 69.53125 61.925781 69.621094 61.757812 69.75 61.503906 C 70.03125 61.238281 70.277344 61.058594 70.535156 60.761719 C 70.554688 60.636719 70.726562 60.636719 70.8125 60.632812 C 70.734375 62.1875 70.570312 63.746094 70.40625 65.300781 C 70.25 65.289062 70.09375 65.273438 69.941406 65.257812 C 69.839844 64.660156 69.742188 64.066406 69.65625 63.304688 C 69.667969 63.140625 69.601562 62.988281 69.601562 62.988281 C 69.546875 62.792969 69.496094 62.597656 69.4375 62.246094 Z M 69.4375 62.246094 "/>
<path style=" stroke:none;fill-rule:nonzero;fill:rgb(79.607844%,59.607846%,72.941178%);fill-opacity:1;" d="M 80.9375 49.855469 C 80.355469 47.460938 81.929688 45.488281 82.636719 43.183594 C 82.171875 45.316406 81.601562 47.535156 80.9375 49.855469 Z M 80.9375 49.855469 "/>
<path style=" stroke:none;fill-rule:nonzero;fill:rgb(92.941177%,85.490197%,89.803922%);fill-opacity:1;" d="M 58.484375 72.429688 C 58.355469 71.773438 58.363281 71.101562 58.359375 70.296875 C 59.300781 70.328125 60.253906 70.492188 61.207031 70.65625 C 61.238281 70.789062 61.269531 70.925781 61.300781 71.058594 C 60.40625 71.511719 59.515625 71.964844 58.484375 72.429688 Z M 58.484375 72.429688 "/>
<path style=" stroke:none;fill-rule:nonzero;fill:rgb(76.862746%,58.431375%,70.980394%);fill-opacity:1;" d="M 70.257812 42.148438 C 69.515625 40.425781 68.246094 38.675781 68.867188 36.359375 C 69.390625 38.164062 69.820312 40.074219 70.257812 42.148438 Z M 70.257812 42.148438 "/>
<path style=" stroke:none;fill-rule:nonzero;fill:rgb(78.823531%,60.784316%,72.941178%);fill-opacity:1;" d="M 9.386719 67.488281 C 9.132812 68.285156 8.75 69.105469 8.347656 70.082031 C 7.863281 69.902344 7.398438 69.578125 6.707031 69.085938 C 7.734375 68.457031 8.496094 67.988281 9.386719 67.488281 Z M 9.386719 67.488281 "/>
<path style=" stroke:none;fill-rule:nonzero;fill:rgb(78.823531%,60.784316%,72.941178%);fill-opacity:1;" d="M 19.398438 77.960938 C 20.726562 77.726562 22.132812 77.625 22.882812 79.359375 C 21.757812 79.007812 20.621094 78.535156 19.398438 77.960938 Z M 19.398438 77.960938 "/>
<path style=" stroke:none;fill-rule:nonzero;fill:rgb(78.823531%,59.607846%,72.549021%);fill-opacity:1;" d="M 28.066406 60.296875 C 27.664062 60.578125 27.128906 60.960938 26.539062 61.089844 C 25.40625 61.34375 24.238281 61.457031 22.988281 61.527344 C 24.566406 61.042969 26.238281 60.664062 28.066406 60.296875 Z M 28.066406 60.296875 "/>
<path style=" stroke:none;fill-rule:nonzero;fill:rgb(80.392158%,61.176473%,74.117649%);fill-opacity:1;" d="M 45.394531 51.996094 C 46.070312 52.707031 46.769531 53.550781 47.371094 54.464844 C 46.652344 53.734375 46.035156 52.929688 45.394531 51.996094 Z M 45.394531 51.996094 "/>
<path style=" stroke:none;fill-rule:nonzero;fill:rgb(80.392158%,61.176473%,74.117649%);fill-opacity:1;" d="M 43.683594 49.304688 C 44.234375 49.984375 44.804688 50.78125 45.378906 51.726562 C 44.816406 51.054688 44.257812 50.238281 43.683594 49.304688 Z M 43.683594 49.304688 "/>
<path style=" stroke:none;fill-rule:nonzero;fill:rgb(78.823531%,59.607846%,72.549021%);fill-opacity:1;" d="M 31.5 59.910156 C 30.949219 60.105469 30.246094 60.28125 29.449219 60.34375 C 30.019531 60.121094 30.683594 60.003906 31.5 59.910156 Z M 31.5 59.910156 "/>
<path style=" stroke:none;fill-rule:nonzero;fill:rgb(80.392158%,61.176473%,74.117649%);fill-opacity:1;" d="M 47.492188 55.015625 C 48.046875 55.453125 48.617188 56.003906 49.183594 56.699219 C 48.625 56.269531 48.070312 55.699219 47.492188 55.015625 Z M 47.492188 55.015625 "/>
<path style=" stroke:none;fill-rule:nonzero;fill:rgb(65.882355%,45.882353%,57.647061%);fill-opacity:1;" d="M 55.488281 86.6875 C 55.800781 86.289062 56.230469 85.84375 56.785156 85.375 C 56.476562 85.78125 56.039062 86.210938 55.488281 86.6875 Z M 55.488281 86.6875 "/>
<path style=" stroke:none;fill-rule:nonzero;fill:rgb(78.039217%,58.431375%,71.372551%);fill-opacity:1;" d="M 57.277344 14.316406 C 56.863281 13.925781 56.460938 13.40625 56.050781 12.753906 C 56.457031 13.140625 56.871094 13.664062 57.277344 14.316406 Z M 57.277344 14.316406 "/>
<path style=" stroke:none;fill-rule:nonzero;fill:rgb(76.862746%,58.431375%,70.980394%);fill-opacity:1;" d="M 68.324219 34.539062 C 68.046875 33.992188 67.78125 33.304688 67.527344 32.457031 C 67.804688 33 68.066406 33.699219 68.324219 34.539062 Z M 68.324219 34.539062 "/>
<path style=" stroke:none;fill-rule:nonzero;fill:rgb(62.352943%,36.862746%,52.549022%);fill-opacity:1;" d="M 65.839844 72.460938 C 65.53125 72.816406 65.105469 73.199219 64.53125 73.566406 C 64.832031 73.195312 65.273438 72.839844 65.839844 72.460938 Z M 65.839844 72.460938 "/>
<path style=" stroke:none;fill-rule:nonzero;fill:rgb(78.823531%,60.784316%,72.941178%);fill-opacity:1;" d="M 23.746094 79.75 C 24.023438 79.707031 24.390625 79.757812 24.773438 79.921875 C 24.472656 79.972656 24.152344 79.910156 23.746094 79.75 Z M 23.746094 79.75 "/>
<path style=" stroke:none;fill-rule:nonzero;fill:rgb(62.352943%,36.862746%,52.549022%);fill-opacity:1;" d="M 75.34375 66.644531 C 75.0625 66.929688 74.652344 67.210938 74.105469 67.492188 C 74.382812 67.207031 74.796875 66.925781 75.34375 66.644531 Z M 75.34375 66.644531 "/>
<path style=" stroke:none;fill-rule:nonzero;fill:rgb(78.039217%,58.431375%,71.372551%);fill-opacity:1;" d="M 59.910156 17.765625 C 59.652344 17.601562 59.390625 17.3125 59.132812 16.882812 C 59.394531 17.039062 59.644531 17.335938 59.910156 17.765625 Z M 59.910156 17.765625 "/>
<path style=" stroke:none;fill-rule:nonzero;fill:rgb(80.392158%,61.176473%,74.117649%);fill-opacity:1;" d="M 50.757812 29.867188 C 51.070312 29.941406 51.4375 30.117188 51.796875 30.4375 C 51.464844 30.375 51.140625 30.171875 50.757812 29.867188 Z M 50.757812 29.867188 "/>
<path style=" stroke:none;fill-rule:nonzero;fill:rgb(65.882355%,45.882353%,57.647061%);fill-opacity:1;" d="M 58.574219 84.003906 C 58.757812 83.746094 59.066406 83.464844 59.511719 83.195312 C 59.335938 83.46875 59.015625 83.722656 58.574219 84.003906 Z M 58.574219 84.003906 "/>
<path style=" stroke:none;fill-rule:nonzero;fill:rgb(65.882355%,45.882353%,57.647061%);fill-opacity:1;" d="M 60.382812 82.753906 C 60.554688 82.511719 60.847656 82.253906 61.273438 81.996094 C 61.105469 82.242188 60.804688 82.488281 60.382812 82.753906 Z M 60.382812 82.753906 "/>
<path style=" stroke:none;fill-rule:nonzero;fill:rgb(78.823531%,60.784316%,72.941178%);fill-opacity:1;" d="M 11.800781 73.394531 C 12.128906 73.445312 12.488281 73.621094 12.886719 73.921875 C 12.558594 73.871094 12.199219 73.691406 11.800781 73.394531 Z M 11.800781 73.394531 "/>
<path style=" stroke:none;fill-rule:nonzero;fill:rgb(78.823531%,60.784316%,72.941178%);fill-opacity:1;" d="M 10.703125 72.578125 C 11.019531 72.648438 11.394531 72.824219 11.773438 73.136719 C 11.4375 73.078125 11.101562 72.882812 10.703125 72.578125 Z M 10.703125 72.578125 "/>
<path style=" stroke:none;fill-rule:nonzero;fill:rgb(78.039217%,58.431375%,71.372551%);fill-opacity:1;" d="M 59.140625 16.628906 C 58.890625 16.460938 58.625 16.171875 58.371094 15.738281 C 58.628906 15.902344 58.878906 16.207031 59.140625 16.628906 Z M 59.140625 16.628906 "/>
<path style=" stroke:none;fill-rule:nonzero;fill:rgb(62.352943%,36.862746%,52.549022%);fill-opacity:1;" d="M 76.433594 65.855469 C 76.269531 66.125 75.984375 66.410156 75.566406 66.683594 C 75.722656 66.402344 76.019531 66.136719 76.433594 65.855469 Z M 76.433594 65.855469 "/>
<path style=" stroke:none;fill-rule:nonzero;fill:rgb(78.823531%,60.784316%,72.941178%);fill-opacity:1;" d="M 8.351562 70.347656 C 8.589844 70.414062 8.847656 70.597656 9.101562 70.921875 C 8.859375 70.863281 8.617188 70.664062 8.351562 70.347656 Z M 8.351562 70.347656 "/>
<path style=" stroke:none;fill-rule:nonzero;fill:rgb(78.039217%,58.431375%,71.372551%);fill-opacity:1;" d="M 56.003906 12.484375 C 55.789062 12.414062 55.558594 12.230469 55.3125 11.925781 C 55.53125 11.988281 55.757812 12.179688 56.003906 12.484375 Z M 56.003906 12.484375 "/>
<path style=" stroke:none;fill-rule:nonzero;fill:rgb(78.039217%,58.431375%,71.372551%);fill-opacity:1;" d="M 60.957031 18.953125 C 60.738281 18.886719 60.511719 18.703125 60.277344 18.398438 C 60.496094 18.460938 60.722656 18.648438 60.957031 18.953125 Z M 60.957031 18.953125 "/>
<path style=" stroke:none;fill-rule:nonzero;fill:rgb(62.352943%,36.862746%,52.549022%);fill-opacity:1;" d="M 63.164062 74.328125 C 63.085938 74.550781 62.894531 74.808594 62.566406 75.035156 C 62.636719 74.792969 62.84375 74.574219 63.164062 74.328125 Z M 63.164062 74.328125 "/>
<path style=" stroke:none;fill-rule:nonzero;fill:rgb(78.039217%,58.431375%,71.372551%);fill-opacity:1;" d="M 58.007812 15.085938 C 57.769531 15.035156 57.511719 14.863281 57.265625 14.558594 C 57.511719 14.605469 57.75 14.785156 58.007812 15.085938 Z M 58.007812 15.085938 "/>
<path style=" stroke:none;fill-rule:nonzero;fill:rgb(67.058825%,34.509805%,54.901963%);fill-opacity:1;" d="M 83.175781 60.089844 C 83.148438 60.09375 83.078125 60.0625 83.078125 60.0625 C 83.078125 60.0625 83.203125 60.089844 83.175781 60.089844 Z M 83.175781 60.089844 "/>
<path style=" stroke:none;fill-rule:nonzero;fill:rgb(76.862746%,58.431375%,70.980394%);fill-opacity:1;" d="M 68.652344 35.34375 C 68.535156 35.273438 68.414062 35.089844 68.296875 34.785156 C 68.417969 34.855469 68.53125 35.042969 68.652344 35.34375 Z M 68.652344 35.34375 "/>
<path style=" stroke:none;fill-rule:nonzero;fill:rgb(62.352943%,36.862746%,52.549022%);fill-opacity:1;" d="M 62.535156 75.515625 C 62.355469 75.511719 62.175781 75.507812 61.859375 75.496094 C 61.878906 75.339844 62.035156 75.191406 62.296875 75.023438 C 62.433594 75.082031 62.464844 75.164062 62.519531 75.375 C 62.542969 75.507812 62.535156 75.515625 62.535156 75.515625 Z M 62.535156 75.515625 "/>
<path style=" stroke:none;fill-rule:nonzero;fill:rgb(62.352943%,36.862746%,52.549022%);fill-opacity:1;" d="M 64.304688 73.5625 C 64.316406 73.65625 64.203125 73.777344 63.964844 73.917969 C 63.953125 73.824219 64.066406 73.703125 64.304688 73.5625 Z M 64.304688 73.5625 "/>
<path style=" stroke:none;fill-rule:nonzero;fill:rgb(62.352943%,36.862746%,52.549022%);fill-opacity:1;" d="M 76.886719 65.503906 C 76.921875 65.59375 76.851562 65.722656 76.667969 65.875 C 76.632812 65.78125 76.703125 65.660156 76.886719 65.503906 Z M 76.886719 65.503906 "/>
<path style=" stroke:none;fill-rule:nonzero;fill:rgb(78.039217%,58.431375%,71.372551%);fill-opacity:1;" d="M 60.25 18.199219 C 60.175781 18.222656 60.070312 18.148438 59.925781 17.980469 C 60 17.960938 60.105469 18.035156 60.25 18.199219 Z M 60.25 18.199219 "/>
<path style=" stroke:none;fill-rule:nonzero;fill:rgb(80.392158%,61.176473%,74.117649%);fill-opacity:1;" d="M 69.582031 63.046875 C 69.601562 62.988281 69.667969 63.140625 69.660156 63.167969 C 69.648438 63.191406 69.566406 63.105469 69.582031 63.046875 Z M 69.582031 63.046875 "/>
<path style=" stroke:none;fill-rule:nonzero;fill:rgb(78.823531%,59.607846%,72.549021%);fill-opacity:1;" d="M 21.980469 61.613281 C 21.988281 61.679688 21.933594 61.71875 21.820312 61.765625 C 21.792969 61.699219 21.84375 61.636719 21.980469 61.613281 Z M 21.980469 61.613281 "/>
<path style=" stroke:none;fill-rule:nonzero;fill:rgb(78.823531%,60.784316%,72.941178%);fill-opacity:1;" d="M 9.46875 71.445312 C 9.542969 71.425781 9.675781 71.5 9.84375 71.683594 C 9.765625 71.710938 9.648438 71.625 9.46875 71.445312 Z M 9.46875 71.445312 "/>
<path style=" stroke:none;fill-rule:nonzero;fill:rgb(78.039217%,58.431375%,71.372551%);fill-opacity:1;" d="M 58.359375 15.515625 C 58.277344 15.542969 58.167969 15.472656 58.027344 15.308594 C 58.105469 15.28125 58.21875 15.347656 58.359375 15.515625 Z M 58.359375 15.515625 "/>
<path style=" stroke:none;fill-rule:nonzero;fill:rgb(65.882355%,45.882353%,57.647061%);fill-opacity:1;" d="M 58.125 84.375 C 58.09375 84.289062 58.160156 84.160156 58.339844 84.015625 C 58.375 84.109375 58.296875 84.21875 58.125 84.375 Z M 58.125 84.375 "/>
<path style=" stroke:none;fill-rule:nonzero;fill:rgb(65.882355%,45.882353%,57.647061%);fill-opacity:1;" d="M 57.273438 85.113281 C 57.273438 85.082031 57.289062 85.097656 57.285156 85.09375 C 57.277344 85.089844 57.277344 85.140625 57.273438 85.113281 Z M 57.273438 85.113281 "/>
<path style=" stroke:none;fill-rule:nonzero;fill:rgb(62.352943%,36.862746%,52.549022%);fill-opacity:1;" d="M 73.875 67.5 C 73.894531 67.585938 73.808594 67.6875 73.625 67.816406 C 73.605469 67.730469 73.6875 67.625 73.875 67.5 Z M 73.875 67.5 "/>
<path style=" stroke:none;fill-rule:nonzero;fill:rgb(62.352943%,36.862746%,52.549022%);fill-opacity:1;" d="M 62.546875 75.503906 C 62.59375 75.558594 62.636719 75.617188 62.683594 75.671875 C 62.648438 75.65625 62.617188 75.636719 62.558594 75.566406 C 62.535156 75.515625 62.542969 75.507812 62.546875 75.503906 Z M 62.546875 75.503906 "/>
</g>
</svg>
